<?xml version="1.0" encoding="UTF-8" standalone="no"?>
<!DOCTYPE svg PUBLIC "-//W3C//DTD SVG 1.1//EN"
 "http://www.w3.org/Graphics/SVG/1.1/DTD/svg11.dtd">
<!-- Generated by graphviz version 2.43.0 (0)
 -->
<!-- Title: flowchart_owners_en Pages: 1 -->
<svg width="711pt" height="427pt"
 viewBox="0.00 0.00 710.70 427.20" xmlns="http://www.w3.org/2000/svg" xmlns:xlink="http://www.w3.org/1999/xlink">
<g id="graph0" class="graph" transform="scale(1 1) rotate(0) translate(21.6 405.6)">
<title>flowchart_owners_en</title>
<polygon fill="white" stroke="transparent" points="-21.6,21.6 -21.6,-405.6 689.1,-405.6 689.1,21.6 -21.6,21.6"/>
<g id="clust1" class="cluster">
<title>cluster_legend</title>
<polygon fill="white" stroke="#b4b2a9" stroke-dasharray="5,2" points="487.5,-8 487.5,-376 659.5,-376 659.5,-8 487.5,-8"/>
<text text-anchor="middle" x="573.5" y="-364" font-family="Helvetica,sans-Serif" font-size="10.00">Legend</text>
</g>
<!-- phase0 -->
<g id="node1" class="node">
<title>phase0</title>
<path fill="#e1f5ee" stroke="#0f6e56" d="M279,-354.5C279,-354.5 178,-354.5 178,-354.5 172,-354.5 166,-348.5 166,-342.5 166,-342.5 166,-319.5 166,-319.5 166,-313.5 172,-307.5 178,-307.5 178,-307.5 279,-307.5 279,-307.5 285,-307.5 291,-313.5 291,-319.5 291,-319.5 291,-342.5 291,-342.5 291,-348.5 285,-354.5 279,-354.5"/>
<text text-anchor="middle" x="228.5" y="-340.9" font-family="Helvetica,sans-Serif" font-size="12.00" fill="#085041">Phase 0</text>
<text text-anchor="middle" x="228.5" y="-327.9" font-family="Helvetica,sans-Serif" font-size="12.00" fill="#085041">ServerConfig</text>
<text text-anchor="middle" x="228.5" y="-314.9" font-family="Helvetica,sans-Serif" font-size="12.00" fill="#085041">(Person 1 &#45; REFIH)</text>
</g>
<!-- core -->
<g id="node2" class="node">
<title>core</title>
<path fill="#e1f5ee" stroke="#0f6e56" d="M113,-270.5C113,-270.5 12,-270.5 12,-270.5 6,-270.5 0,-264.5 0,-258.5 0,-258.5 0,-222.5 0,-222.5 0,-216.5 6,-210.5 12,-210.5 12,-210.5 113,-210.5 113,-210.5 119,-210.5 125,-216.5 125,-222.5 125,-222.5 125,-258.5 125,-258.5 125,-264.5 119,-270.5 113,-270.5"/>
<text text-anchor="middle" x="62.5" y="-256.9" font-family="Helvetica,sans-Serif" font-size="12.00" fill="#085041">Core</text>
<text text-anchor="middle" x="62.5" y="-243.9" font-family="Helvetica,sans-Serif" font-size="12.00" fill="#085041">Sockets, timeout,</text>
<text text-anchor="middle" x="62.5" y="-230.9" font-family="Helvetica,sans-Serif" font-size="12.00" fill="#085041">signal handling</text>
<text text-anchor="middle" x="62.5" y="-217.9" font-family="Helvetica,sans-Serif" font-size="12.00" fill="#085041">(Person 1 &#45; REFIH)</text>
</g>
<!-- phase0&#45;&gt;core -->
<g id="edge1" class="edge">
<title>phase0&#45;&gt;core</title>
<path fill="none" stroke="#5f5e5a" d="M186.18,-307.44C167.12,-297.27 144.25,-285.08 123.39,-273.96"/>
<polygon fill="#5f5e5a" stroke="#5f5e5a" points="124.32,-271.68 116.99,-270.55 122.01,-276 124.32,-271.68"/>
</g>
<!-- http -->
<g id="node3" class="node">
<title>http</title>
<path fill="#faece7" stroke="#993c1d" d="M302,-270.5C302,-270.5 155,-270.5 155,-270.5 149,-270.5 143,-264.5 143,-258.5 143,-258.5 143,-222.5 143,-222.5 143,-216.5 149,-210.5 155,-210.5 155,-210.5 302,-210.5 302,-210.5 308,-210.5 314,-216.5 314,-222.5 314,-222.5 314,-258.5 314,-258.5 314,-264.5 308,-270.5 302,-270.5"/>
<text text-anchor="middle" x="228.5" y="-256.9" font-family="Helvetica,sans-Serif" font-size="12.00" fill="#712b13">HTTP</text>
<text text-anchor="middle" x="228.5" y="-243.9" font-family="Helvetica,sans-Serif" font-size="12.00" fill="#712b13">Chunked encoding,</text>
<text text-anchor="middle" x="228.5" y="-230.9" font-family="Helvetica,sans-Serif" font-size="12.00" fill="#712b13">URL decode, status codes</text>
<text text-anchor="middle" x="228.5" y="-217.9" font-family="Helvetica,sans-Serif" font-size="12.00" fill="#712b13">(Person 2)</text>
</g>
<!-- phase0&#45;&gt;http -->
<g id="edge2" class="edge">
<title>phase0&#45;&gt;http</title>
<path fill="none" stroke="#5f5e5a" d="M228.5,-307.21C228.5,-298.22 228.5,-287.68 228.5,-277.71"/>
<polygon fill="#5f5e5a" stroke="#5f5e5a" points="230.95,-277.57 228.5,-270.57 226.05,-277.57 230.95,-277.57"/>
</g>
<!-- cgi -->
<g id="node4" class="node">
<title>cgi</title>
<path fill="#eeedfe" stroke="#534ab7" d="M467,-270.5C467,-270.5 344,-270.5 344,-270.5 338,-270.5 332,-264.5 332,-258.5 332,-258.5 332,-222.5 332,-222.5 332,-216.5 338,-210.5 344,-210.5 344,-210.5 467,-210.5 467,-210.5 473,-210.5 479,-216.5 479,-222.5 479,-222.5 479,-258.5 479,-258.5 479,-264.5 473,-270.5 467,-270.5"/>
<text text-anchor="middle" x="405.5" y="-256.9" font-family="Helvetica,sans-Serif" font-size="12.00" fill="#3c3489">CGI / Config</text>
<text text-anchor="middle" x="405.5" y="-243.9" font-family="Helvetica,sans-Serif" font-size="12.00" fill="#3c3489">Fork&#45;execve, redirect,</text>
<text text-anchor="middle" x="405.5" y="-230.9" font-family="Helvetica,sans-Serif" font-size="12.00" fill="#3c3489">multipart upload</text>
<text text-anchor="middle" x="405.5" y="-217.9" font-family="Helvetica,sans-Serif" font-size="12.00" fill="#3c3489">(Person 3)</text>
</g>
<!-- phase0&#45;&gt;cgi -->
<g id="edge3" class="edge">
<title>phase0&#45;&gt;cgi</title>
<path fill="none" stroke="#5f5e5a" d="M273.62,-307.44C294.04,-297.23 318.54,-284.98 340.86,-273.82"/>
<polygon fill="#5f5e5a" stroke="#5f5e5a" points="342.24,-275.87 347.4,-270.55 340.05,-271.49 342.24,-275.87"/>
</g>
<!-- phase4 -->
<g id="node5" class="node">
<title>phase4</title>
<path fill="#e6f1fb" stroke="#185fa5" d="M258,-141.5C258,-141.5 199,-141.5 199,-141.5 193,-141.5 187,-135.5 187,-129.5 187,-129.5 187,-106.5 187,-106.5 187,-100.5 193,-94.5 199,-94.5 199,-94.5 258,-94.5 258,-94.5 264,-94.5 270,-100.5 270,-106.5 270,-106.5 270,-129.5 270,-129.5 270,-135.5 264,-141.5 258,-141.5"/>
<text text-anchor="middle" x="228.5" y="-127.9" font-family="Helvetica,sans-Serif" font-size="12.00" fill="#0c447c">Phase 4</text>
<text text-anchor="middle" x="228.5" y="-114.9" font-family="Helvetica,sans-Serif" font-size="12.00" fill="#0c447c">Integration</text>
<text text-anchor="middle" x="228.5" y="-101.9" font-family="Helvetica,sans-Serif" font-size="12.00" fill="#0c447c">(Everyone)</text>
</g>
<!-- core&#45;&gt;phase4 -->
<g id="edge4" class="edge">
<title>core&#45;&gt;phase4</title>
<path fill="none" stroke="#5f5e5a" d="M102.68,-210.33C129.71,-190.71 165.09,-165.03 191.44,-145.9"/>
<polygon fill="#5f5e5a" stroke="#5f5e5a" points="193.03,-147.78 197.26,-141.68 190.15,-143.81 193.03,-147.78"/>
</g>
<!-- http&#45;&gt;phase4 -->
<g id="edge5" class="edge">
<title>http&#45;&gt;phase4</title>
<path fill="none" stroke="#5f5e5a" d="M228.5,-210.33C228.5,-191.76 228.5,-167.77 228.5,-149.03"/>
<polygon fill="#5f5e5a" stroke="#5f5e5a" points="230.95,-148.87 228.5,-141.87 226.05,-148.87 230.95,-148.87"/>
<text text-anchor="middle" x="258.5" y="-184.5" font-family="Helvetica,sans-Serif" font-size="10.00">Connection</text>
<text text-anchor="middle" x="258.5" y="-173.5" font-family="Helvetica,sans-Serif" font-size="10.00">header sync</text>
<text text-anchor="middle" x="258.5" y="-162.5" font-family="Helvetica,sans-Serif" font-size="10.00">(P1 &lt;&#45;&gt; P2)</text>
</g>
<!-- cgi&#45;&gt;phase4 -->
<g id="edge6" class="edge">
<title>cgi&#45;&gt;phase4</title>
<path fill="none" stroke="#5f5e5a" d="M365.58,-210.48C344.11,-195.06 317.06,-175.95 292.5,-159.5 285.59,-154.87 278.18,-150.05 270.95,-145.43"/>
<polygon fill="#5f5e5a" stroke="#5f5e5a" points="272.15,-143.29 264.93,-141.59 269.52,-147.42 272.15,-143.29"/>
</g>
<!-- final -->
<g id="node6" class="node">
<title>final</title>
<path fill="#e6f1fb" stroke="#185fa5" d="M277.5,-57.5C277.5,-57.5 179.5,-57.5 179.5,-57.5 173.5,-57.5 167.5,-51.5 167.5,-45.5 167.5,-45.5 167.5,-22.5 167.5,-22.5 167.5,-16.5 173.5,-10.5 179.5,-10.5 179.5,-10.5 277.5,-10.5 277.5,-10.5 283.5,-10.5 289.5,-16.5 289.5,-22.5 289.5,-22.5 289.5,-45.5 289.5,-45.5 289.5,-51.5 283.5,-57.5 277.5,-57.5"/>
<text text-anchor="middle" x="228.5" y="-43.9" font-family="Helvetica,sans-Serif" font-size="12.00" fill="#0c447c">Final</text>
<text text-anchor="middle" x="228.5" y="-30.9" font-family="Helvetica,sans-Serif" font-size="12.00" fill="#0c447c">README + Bonus</text>
<text text-anchor="middle" x="228.5" y="-17.9" font-family="Helvetica,sans-Serif" font-size="12.00" fill="#0c447c">(Everyone)</text>
</g>
<!-- phase4&#45;&gt;final -->
<g id="edge7" class="edge">
<title>phase4&#45;&gt;final</title>
<path fill="none" stroke="#5f5e5a" d="M228.5,-94.16C228.5,-85.1 228.5,-74.55 228.5,-64.89"/>
<polygon fill="#5f5e5a" stroke="#5f5e5a" points="230.95,-64.72 228.5,-57.72 226.05,-64.72 230.95,-64.72"/>
</g>
<!-- L1 -->
<g id="node7" class="node">
<title>L1</title>
<path fill="#e1f5ee" stroke="#0f6e56" d="M639.5,-349C639.5,-349 507.5,-349 507.5,-349 501.5,-349 495.5,-343 495.5,-337 495.5,-337 495.5,-325 495.5,-325 495.5,-319 501.5,-313 507.5,-313 507.5,-313 639.5,-313 639.5,-313 645.5,-313 651.5,-319 651.5,-325 651.5,-325 651.5,-337 651.5,-337 651.5,-343 645.5,-349 639.5,-349"/>
<text text-anchor="middle" x="573.5" y="-327.9" font-family="Helvetica,sans-Serif" font-size="12.00" fill="#085041">Person 1 &#45; Core (REFIH)</text>
</g>
<!-- L2 -->
<g id="node8" class="node">
<title>L2</title>
<path fill="#faece7" stroke="#993c1d" d="M617,-258.5C617,-258.5 530,-258.5 530,-258.5 524,-258.5 518,-252.5 518,-246.5 518,-246.5 518,-234.5 518,-234.5 518,-228.5 524,-222.5 530,-222.5 530,-222.5 617,-222.5 617,-222.5 623,-222.5 629,-228.5 629,-234.5 629,-234.5 629,-246.5 629,-246.5 629,-252.5 623,-258.5 617,-258.5"/>
<text text-anchor="middle" x="573.5" y="-237.4" font-family="Helvetica,sans-Serif" font-size="12.00" fill="#712b13">Person 2 &#45; HTTP</text>
</g>
<!-- L1&#45;&gt;L2 -->
<!-- L3 -->
<g id="node9" class="node">
<title>L3</title>
<path fill="#eeedfe" stroke="#534ab7" d="M633,-136C633,-136 514,-136 514,-136 508,-136 502,-130 502,-124 502,-124 502,-112 502,-112 502,-106 508,-100 514,-100 514,-100 633,-100 633,-100 639,-100 645,-106 645,-112 645,-112 645,-124 645,-124 645,-130 639,-136 633,-136"/>
<text text-anchor="middle" x="573.5" y="-114.9" font-family="Helvetica,sans-Serif" font-size="12.00" fill="#3c3489">Person 3 &#45; CGI/Config</text>
</g>
<!-- L2&#45;&gt;L3 -->
<!-- L4 -->
<g id="node10" class="node">
<title>L4</title>
<path fill="#e6f1fb" stroke="#185fa5" d="M625.5,-52C625.5,-52 521.5,-52 521.5,-52 515.5,-52 509.5,-46 509.5,-40 509.5,-40 509.5,-28 509.5,-28 509.5,-22 515.5,-16 521.5,-16 521.5,-16 625.5,-16 625.5,-16 631.5,-16 637.5,-22 637.5,-28 637.5,-28 637.5,-40 637.5,-40 637.5,-46 631.5,-52 625.5,-52"/>
<text text-anchor="middle" x="573.5" y="-30.9" font-family="Helvetica,sans-Serif" font-size="12.00" fill="#0c447c">Shared / milestone</text>
</g>
<!-- L3&#45;&gt;L4 -->
</g>
</svg>
