<?xml version="1.0" encoding="UTF-8" standalone="no"?>
<!DOCTYPE svg PUBLIC "-//W3C//DTD SVG 1.1//EN"
 "http://www.w3.org/Graphics/SVG/1.1/DTD/svg11.dtd">
<!-- Generated by graphviz version 2.43.0 (0)
 -->
<!-- Title: dependency_graph Pages: 1 -->
<svg width="613pt" height="647pt"
 viewBox="0.00 0.00 612.70 647.20" xmlns="http://www.w3.org/2000/svg" xmlns:xlink="http://www.w3.org/1999/xlink">
<g id="graph0" class="graph" transform="scale(1 1) rotate(0) translate(21.6 625.6)">
<title>dependency_graph</title>
<polygon fill="white" stroke="transparent" points="-21.6,21.6 -21.6,-625.6 591.1,-625.6 591.1,21.6 -21.6,21.6"/>
<!-- poll -->
<g id="node1" class="node">
<title>poll</title>
<path fill="#e1f5ee" stroke="#0f6e56" d="M441.5,-604C441.5,-604 357.5,-604 357.5,-604 351.5,-604 345.5,-598 345.5,-592 345.5,-592 345.5,-580 345.5,-580 345.5,-574 351.5,-568 357.5,-568 357.5,-568 441.5,-568 441.5,-568 447.5,-568 453.5,-574 453.5,-580 453.5,-580 453.5,-592 453.5,-592 453.5,-598 447.5,-604 441.5,-604"/>
<text text-anchor="middle" x="399.5" y="-589.2" font-family="Helvetica,sans-Serif" font-size="11.00" fill="#085041">Server::run()</text>
<text text-anchor="middle" x="399.5" y="-577.2" font-family="Helvetica,sans-Serif" font-size="11.00" fill="#085041">single poll() loop</text>
</g>
<!-- accept -->
<g id="node2" class="node">
<title>accept</title>
<path fill="#e1f5ee" stroke="#0f6e56" d="M334.5,-512C334.5,-512 264.5,-512 264.5,-512 258.5,-512 252.5,-506 252.5,-500 252.5,-500 252.5,-488 252.5,-488 252.5,-482 258.5,-476 264.5,-476 264.5,-476 334.5,-476 334.5,-476 340.5,-476 346.5,-482 346.5,-488 346.5,-488 346.5,-500 346.5,-500 346.5,-506 340.5,-512 334.5,-512"/>
<text text-anchor="middle" x="299.5" y="-491.2" font-family="Helvetica,sans-Serif" font-size="11.00" fill="#085041">acceptClient()</text>
</g>
<!-- poll&#45;&gt;accept -->
<g id="edge1" class="edge">
<title>poll&#45;&gt;accept</title>
<path fill="none" stroke="#5f5e5a" d="M345.24,-579.38C326.71,-574.57 307.83,-565.81 296.5,-550 290.21,-541.22 290.05,-529.48 291.84,-519.11"/>
<polygon fill="#5f5e5a" stroke="#5f5e5a" points="294.25,-519.55 293.34,-512.19 289.47,-518.51 294.25,-519.55"/>
<text text-anchor="middle" x="322" y="-542.8" font-family="Helvetica,sans-Serif" font-size="9.00">POLLIN</text>
<text text-anchor="middle" x="322" y="-532.8" font-family="Helvetica,sans-Serif" font-size="9.00">on listen fd</text>
</g>
<!-- read -->
<g id="node3" class="node">
<title>read</title>
<path fill="#e1f5ee" stroke="#0f6e56" d="M476.5,-512C476.5,-512 378.5,-512 378.5,-512 372.5,-512 366.5,-506 366.5,-500 366.5,-500 366.5,-488 366.5,-488 366.5,-482 372.5,-476 378.5,-476 378.5,-476 476.5,-476 476.5,-476 482.5,-476 488.5,-482 488.5,-488 488.5,-488 488.5,-500 488.5,-500 488.5,-506 482.5,-512 476.5,-512"/>
<text text-anchor="middle" x="427.5" y="-491.2" font-family="Helvetica,sans-Serif" font-size="11.00" fill="#085041">handleClientRead()</text>
</g>
<!-- poll&#45;&gt;read -->
<g id="edge2" class="edge">
<title>poll&#45;&gt;read</title>
<path fill="none" stroke="#5f5e5a" d="M404.9,-567.65C409.2,-553.83 415.27,-534.33 420.03,-519.01"/>
<polygon fill="#5f5e5a" stroke="#5f5e5a" points="422.38,-519.71 422.12,-512.3 417.7,-518.26 422.38,-519.71"/>
<text text-anchor="middle" x="441.5" y="-542.8" font-family="Helvetica,sans-Serif" font-size="9.00">POLLIN</text>
<text text-anchor="middle" x="441.5" y="-532.8" font-family="Helvetica,sans-Serif" font-size="9.00">on client fd</text>
</g>
<!-- accept&#45;&gt;poll -->
<g id="edge3" class="edge">
<title>accept&#45;&gt;poll</title>
<path fill="none" stroke="#5f5e5a" d="M325.08,-512.33C332.53,-517.72 340.53,-523.87 347.5,-530 358.92,-540.05 370.65,-552.27 380.08,-562.63"/>
<polygon fill="#5f5e5a" stroke="#5f5e5a" points="378.27,-564.29 384.78,-567.86 381.92,-561.01 378.27,-564.29"/>
<text text-anchor="middle" x="385" y="-542.8" font-family="Helvetica,sans-Serif" font-size="9.00">register</text>
<text text-anchor="middle" x="385" y="-532.8" font-family="Helvetica,sans-Serif" font-size="9.00">client fd</text>
</g>
<!-- parse -->
<g id="node4" class="node">
<title>parse</title>
<path fill="#faece7" stroke="#993c1d" d="M474,-439C474,-439 365,-439 365,-439 359,-439 353,-433 353,-427 353,-427 353,-415 353,-415 353,-409 359,-403 365,-403 365,-403 474,-403 474,-403 480,-403 486,-409 486,-415 486,-415 486,-427 486,-427 486,-433 480,-439 474,-439"/>
<text text-anchor="middle" x="419.5" y="-418.2" font-family="Helvetica,sans-Serif" font-size="11.00" fill="#712b13">HttpRequest::parse()</text>
</g>
<!-- read&#45;&gt;parse -->
<g id="edge4" class="edge">
<title>read&#45;&gt;parse</title>
<path fill="none" stroke="#5f5e5a" d="M425.56,-475.81C424.56,-466.92 423.32,-455.91 422.22,-446.17"/>
<polygon fill="#5f5e5a" stroke="#5f5e5a" points="424.64,-445.71 421.42,-439.03 419.77,-446.26 424.64,-445.71"/>
</g>
<!-- find -->
<g id="node5" class="node">
<title>find</title>
<path fill="#eeedfe" stroke="#534ab7" d="M422.5,-366C422.5,-366 312.5,-366 312.5,-366 306.5,-366 300.5,-360 300.5,-354 300.5,-354 300.5,-342 300.5,-342 300.5,-336 306.5,-330 312.5,-330 312.5,-330 422.5,-330 422.5,-330 428.5,-330 434.5,-336 434.5,-342 434.5,-342 434.5,-354 434.5,-354 434.5,-360 428.5,-366 422.5,-366"/>
<text text-anchor="middle" x="367.5" y="-345.2" font-family="Helvetica,sans-Serif" font-size="11.00" fill="#3c3489">Config::findLocation()</text>
</g>
<!-- parse&#45;&gt;find -->
<g id="edge5" class="edge">
<title>parse&#45;&gt;find</title>
<path fill="none" stroke="#5f5e5a" d="M406.91,-402.81C400.08,-393.48 391.54,-381.83 384.16,-371.75"/>
<polygon fill="#5f5e5a" stroke="#5f5e5a" points="386.08,-370.23 379.97,-366.03 382.13,-373.12 386.08,-370.23"/>
</g>
<!-- method -->
<g id="node6" class="node">
<title>method</title>
<path fill="#eeedfe" stroke="#534ab7" d="M342,-274C342,-274 235,-274 235,-274 229,-274 223,-268 223,-262 223,-262 223,-250 223,-250 223,-244 229,-238 235,-238 235,-238 342,-238 342,-238 348,-238 354,-244 354,-250 354,-250 354,-262 354,-262 354,-268 348,-274 342,-274"/>
<text text-anchor="middle" x="288.5" y="-259.2" font-family="Helvetica,sans-Serif" font-size="11.00" fill="#3c3489">Method dispatch</text>
<text text-anchor="middle" x="288.5" y="-247.2" font-family="Helvetica,sans-Serif" font-size="11.00" fill="#3c3489">GET / POST / DELETE</text>
</g>
<!-- find&#45;&gt;method -->
<g id="edge6" class="edge">
<title>find&#45;&gt;method</title>
<path fill="none" stroke="#5f5e5a" d="M352.27,-329.65C339.81,-315.45 322.09,-295.27 308.49,-279.78"/>
<polygon fill="#5f5e5a" stroke="#5f5e5a" points="310.14,-277.94 303.69,-274.3 306.46,-281.18 310.14,-277.94"/>
</g>
<!-- static -->
<g id="node7" class="node">
<title>static</title>
<path fill="#fbeaf0" stroke="#993556" d="M91,-182C91,-182 12,-182 12,-182 6,-182 0,-176 0,-170 0,-170 0,-158 0,-158 0,-152 6,-146 12,-146 12,-146 91,-146 91,-146 97,-146 103,-152 103,-158 103,-158 103,-170 103,-170 103,-176 97,-182 91,-182"/>
<text text-anchor="middle" x="51.5" y="-167.2" font-family="Helvetica,sans-Serif" font-size="11.00" fill="#72243e">Static file /</text>
<text text-anchor="middle" x="51.5" y="-155.2" font-family="Helvetica,sans-Serif" font-size="11.00" fill="#72243e">directory listing</text>
</g>
<!-- method&#45;&gt;static -->
<g id="edge7" class="edge">
<title>method&#45;&gt;static</title>
<path fill="none" stroke="#5f5e5a" d="M243.64,-237.97C203.65,-222.78 145.1,-200.54 103.16,-184.62"/>
<polygon fill="#5f5e5a" stroke="#5f5e5a" points="103.99,-182.31 96.58,-182.12 102.25,-186.89 103.99,-182.31"/>
<text text-anchor="middle" x="201" y="-207.8" font-family="Helvetica,sans-Serif" font-size="9.00">GET</text>
</g>
<!-- upload -->
<g id="node8" class="node">
<title>upload</title>
<path fill="#fbeaf0" stroke="#993556" d="M209.5,-182C209.5,-182 133.5,-182 133.5,-182 127.5,-182 121.5,-176 121.5,-170 121.5,-170 121.5,-158 121.5,-158 121.5,-152 127.5,-146 133.5,-146 133.5,-146 209.5,-146 209.5,-146 215.5,-146 221.5,-152 221.5,-158 221.5,-158 221.5,-170 221.5,-170 221.5,-176 215.5,-182 209.5,-182"/>
<text text-anchor="middle" x="171.5" y="-161.2" font-family="Helvetica,sans-Serif" font-size="11.00" fill="#72243e">Upload handler</text>
</g>
<!-- method&#45;&gt;upload -->
<g id="edge8" class="edge">
<title>method&#45;&gt;upload</title>
<path fill="none" stroke="#5f5e5a" d="M266.22,-237.86C247.19,-223.22 219.73,-202.1 199.27,-186.36"/>
<polygon fill="#5f5e5a" stroke="#5f5e5a" points="200.74,-184.4 193.7,-182.08 197.75,-188.29 200.74,-184.4"/>
<text text-anchor="middle" x="252.5" y="-207.8" font-family="Helvetica,sans-Serif" font-size="9.00">POST</text>
</g>
<!-- delete -->
<g id="node9" class="node">
<title>delete</title>
<path fill="#fbeaf0" stroke="#993556" d="M325.5,-182C325.5,-182 251.5,-182 251.5,-182 245.5,-182 239.5,-176 239.5,-170 239.5,-170 239.5,-158 239.5,-158 239.5,-152 245.5,-146 251.5,-146 251.5,-146 325.5,-146 325.5,-146 331.5,-146 337.5,-152 337.5,-158 337.5,-158 337.5,-170 337.5,-170 337.5,-176 331.5,-182 325.5,-182"/>
<text text-anchor="middle" x="288.5" y="-161.2" font-family="Helvetica,sans-Serif" font-size="11.00" fill="#72243e">Delete handler</text>
</g>
<!-- method&#45;&gt;delete -->
<g id="edge9" class="edge">
<title>method&#45;&gt;delete</title>
<path fill="none" stroke="#5f5e5a" d="M288.5,-237.65C288.5,-223.95 288.5,-204.68 288.5,-189.42"/>
<polygon fill="#5f5e5a" stroke="#5f5e5a" points="290.95,-189.3 288.5,-182.3 286.05,-189.3 290.95,-189.3"/>
<text text-anchor="middle" x="306.5" y="-207.8" font-family="Helvetica,sans-Serif" font-size="9.00">DELETE</text>
</g>
<!-- cgifork -->
<g id="node10" class="node">
<title>cgifork</title>
<path fill="#fbeaf0" stroke="#993556" d="M483.5,-182C483.5,-182 367.5,-182 367.5,-182 361.5,-182 355.5,-176 355.5,-170 355.5,-170 355.5,-158 355.5,-158 355.5,-152 361.5,-146 367.5,-146 367.5,-146 483.5,-146 483.5,-146 489.5,-146 495.5,-152 495.5,-158 495.5,-158 495.5,-170 495.5,-170 495.5,-176 489.5,-182 483.5,-182"/>
<text text-anchor="middle" x="425.5" y="-167.2" font-family="Helvetica,sans-Serif" font-size="11.00" fill="#72243e">CGI handler</text>
<text text-anchor="middle" x="425.5" y="-155.2" font-family="Helvetica,sans-Serif" font-size="11.00" fill="#72243e">(fork/execve, planned)</text>
</g>
<!-- method&#45;&gt;cgifork -->
<g id="edge10" class="edge">
<title>method&#45;&gt;cgifork</title>
<path fill="none" stroke="#5f5e5a" stroke-dasharray="5,2" d="M314.59,-237.86C337.06,-223.1 369.58,-201.74 393.59,-185.96"/>
<polygon fill="#5f5e5a" stroke="#5f5e5a" points="395,-187.97 399.51,-182.08 392.31,-183.87 395,-187.97"/>
<text text-anchor="middle" x="385.5" y="-212.8" font-family="Helvetica,sans-Serif" font-size="9.00">CGI ext</text>
<text text-anchor="middle" x="385.5" y="-202.8" font-family="Helvetica,sans-Serif" font-size="9.00">(TODO)</text>
</g>
<!-- resp -->
<g id="node11" class="node">
<title>resp</title>
<path fill="#faece7" stroke="#993c1d" d="M353.5,-109C353.5,-109 223.5,-109 223.5,-109 217.5,-109 211.5,-103 211.5,-97 211.5,-97 211.5,-85 211.5,-85 211.5,-79 217.5,-73 223.5,-73 223.5,-73 353.5,-73 353.5,-73 359.5,-73 365.5,-79 365.5,-85 365.5,-85 365.5,-97 365.5,-97 365.5,-103 359.5,-109 353.5,-109"/>
<text text-anchor="middle" x="288.5" y="-88.2" font-family="Helvetica,sans-Serif" font-size="11.00" fill="#712b13">HttpResponse::toString()</text>
</g>
<!-- static&#45;&gt;resp -->
<g id="edge11" class="edge">
<title>static&#45;&gt;resp</title>
<path fill="none" stroke="#5f5e5a" d="M103.22,-147.51C138.86,-136.83 186.48,-122.56 224.51,-111.17"/>
<polygon fill="#5f5e5a" stroke="#5f5e5a" points="225.5,-113.43 231.5,-109.08 224.09,-108.74 225.5,-113.43"/>
</g>
<!-- upload&#45;&gt;resp -->
<g id="edge12" class="edge">
<title>upload&#45;&gt;resp</title>
<path fill="none" stroke="#5f5e5a" d="M199.52,-145.99C215.9,-136.06 236.7,-123.43 254.07,-112.89"/>
<polygon fill="#5f5e5a" stroke="#5f5e5a" points="255.59,-114.84 260.3,-109.11 253.04,-110.65 255.59,-114.84"/>
</g>
<!-- delete&#45;&gt;resp -->
<g id="edge13" class="edge">
<title>delete&#45;&gt;resp</title>
<path fill="none" stroke="#5f5e5a" d="M288.5,-145.81C288.5,-136.92 288.5,-125.91 288.5,-116.17"/>
<polygon fill="#5f5e5a" stroke="#5f5e5a" points="290.95,-116.03 288.5,-109.03 286.05,-116.03 290.95,-116.03"/>
</g>
<!-- cgifork&#45;&gt;resp -->
<g id="edge14" class="edge">
<title>cgifork&#45;&gt;resp</title>
<path fill="none" stroke="#5f5e5a" stroke-dasharray="5,2" d="M392.69,-145.99C373.17,-135.88 348.3,-122.99 327.75,-112.34"/>
<polygon fill="#5f5e5a" stroke="#5f5e5a" points="328.86,-110.16 321.52,-109.11 326.61,-114.51 328.86,-110.16"/>
</g>
<!-- write -->
<g id="node12" class="node">
<title>write</title>
<path fill="#e1f5ee" stroke="#0f6e56" d="M455,-36C455,-36 356,-36 356,-36 350,-36 344,-30 344,-24 344,-24 344,-12 344,-12 344,-6 350,0 356,0 356,0 455,0 455,0 461,0 467,-6 467,-12 467,-12 467,-24 467,-24 467,-30 461,-36 455,-36"/>
<text text-anchor="middle" x="405.5" y="-15.2" font-family="Helvetica,sans-Serif" font-size="11.00" fill="#085041">handleClientWrite()</text>
</g>
<!-- resp&#45;&gt;write -->
<g id="edge15" class="edge">
<title>resp&#45;&gt;write</title>
<path fill="none" stroke="#5f5e5a" d="M316.52,-72.99C332.9,-63.06 353.7,-50.43 371.07,-39.89"/>
<polygon fill="#5f5e5a" stroke="#5f5e5a" points="372.59,-41.84 377.3,-36.11 370.04,-37.65 372.59,-41.84"/>
</g>
<!-- write&#45;&gt;poll -->
<g id="edge16" class="edge">
<title>write&#45;&gt;poll</title>
<path fill="none" stroke="#5f5e5a" d="M467.26,-32.52C495.81,-42.77 523.5,-60.35 523.5,-90 523.5,-495 523.5,-495 523.5,-495 523.5,-529.52 491.64,-552.17 460.21,-566.11"/>
<polygon fill="#5f5e5a" stroke="#5f5e5a" points="459.01,-563.96 453.53,-568.96 460.93,-568.47 459.01,-563.96"/>
<text text-anchor="middle" x="546.5" y="-304.8" font-family="Helvetica,sans-Serif" font-size="9.00">POLLOUT</text>
<text text-anchor="middle" x="546.5" y="-294.8" font-family="Helvetica,sans-Serif" font-size="9.00">registered</text>
</g>
</g>
</svg>
